<svg xmlns="http://www.w3.org/2000/svg" width="88" height="61" fill="none" viewBox="0 0 88 61"><path fill="#fff" d="M2.604 44.632V39.382L20.622 32.83V35.77L2.604 29.218V23.968L22.596 31.57V37.03L2.604 44.632ZM27.4526 52.78V49H48.4526V52.78H27.4526Z"/><path fill="#ADD0FD" d="M58.7846 51.982L51.6026 50.638C52.9466 45.206 54.3466 40.292 55.8026 35.896C57.2866 31.5 58.8126 27.734 60.3806 24.598C61.9486 21.462 63.5446 19.054 65.1686 17.374C66.8206 15.666 68.4726 14.812 70.1246 14.812C73.4566 14.812 76.5226 17.906 79.3226 24.094C82.1226 30.254 84.5026 39.186 86.4626 50.89L79.0286 51.898C78.6926 50.05 78.3286 48.16 77.9366 46.228C77.5446 44.268 77.1386 42.364 76.7186 40.516C76.0466 40.488 75.3186 40.474 74.5346 40.474C73.1626 40.474 71.7066 40.502 70.1666 40.558C68.6546 40.614 67.1566 40.712 65.6726 40.852C64.2166 40.964 62.8586 41.09 61.5986 41.23C61.0666 43.022 60.5486 44.842 60.0446 46.69C59.5686 48.51 59.1486 50.274 58.7846 51.982ZM66.5126 27.454C65.8966 28.77 65.0706 30.898 64.0346 33.838C65.2386 33.698 66.5126 33.6 67.8566 33.544C69.2006 33.46 70.5166 33.418 71.8046 33.418C72.8966 33.418 73.9466 33.446 74.9546 33.502C74.5626 32.074 74.1846 30.8 73.8206 29.68C73.4846 28.56 73.1766 27.678 72.8966 27.034C72.3086 25.522 71.7906 24.458 71.3426 23.842C70.8946 23.198 70.4326 22.876 69.9566 22.876C69.4526 22.876 68.9486 23.212 68.4446 23.884C67.9406 24.528 67.2966 25.718 66.5126 27.454Z"/></svg>